<svg id="Layer_1" data-name="Layer 1" xmlns="http://www.w3.org/2000/svg" viewBox="0 0 2000 500"><defs><style>.cls-1{fill:#002b36;}.cls-2{fill:#00a3cc;}.cls-3{fill:#fff;}.cls-4{fill:#007c9b;}</style></defs><title>Artboard 1</title><rect class="cls-1" x="150.35" y="92.19" width="315.62" height="315.62" rx="20"/><path class="cls-2" d="M392.68,377.43h-169L171.4,216.66,308.16,117.3l136.76,99.36ZM238,357.71H378.35L421.73,224.2,308.16,141.68,194.58,224.2Z"/><circle class="cls-3" cx="184.44" cy="223.13" r="22.53"/><circle class="cls-3" cx="431.87" cy="223.13" r="22.53"/><circle class="cls-3" cx="308.16" cy="132.05" r="22.53"/><circle class="cls-3" cx="231.55" cy="367.95" r="22.53"/><circle class="cls-3" cx="384.77" cy="367.95" r="22.53"/><circle class="cls-4" cx="259.22" cy="231.61" r="22.53"/><circle class="cls-4" cx="357.1" cy="231.61" r="22.53"/><circle class="cls-4" cx="308.16" cy="307.45" r="22.53"/><path d="M659.59,258.52Q651.47,270.15,637,275.9t-33.82,5.76q-19.53,0-34.65-9.16a61,61,0,0,1-23.41-26q-8.28-16.87-8.5-39.14V193.4q0-36.08,16.83-55.92t47.31-19.85q25,0,40.24,12.78t18.64,36.23H638.54q-5.92-31.78-37.72-31.79-21.15,0-32.07,14.87t-11,43.07v13.06q0,26.88,12.28,42.74t33.23,15.85A73.4,73.4,0,0,0,624,261.82,32.07,32.07,0,0,0,638.65,253V217.19H601.7V200h57.89Z"/><path d="M748.84,179a61,61,0,0,0-10-.76q-20,0-27.08,17v84.2H691.5V160.83h19.73l.33,13.71q10-15.9,28.29-15.9c3.95,0,6.94.51,9,1.53Z"/><path d="M836.34,279.46Q834.58,276,833.49,267q-14.15,14.68-33.77,14.69-17.55,0-28.79-9.92a32.12,32.12,0,0,1-11.23-25.17q0-18.52,14.09-28.78t39.63-10.25h19.74v-9.32q0-10.64-6.36-16.94T808.05,175q-10.86,0-18.2,5.48t-7.35,13.26H762.11q0-8.88,6.3-17.15a43.06,43.06,0,0,1,17.11-13.11,57.62,57.62,0,0,1,23.73-4.82q20.5,0,32.13,10.25t12.06,28.23v54.61q0,16.34,4.17,26v1.75ZM802.68,264a35.64,35.64,0,0,0,18.09-4.94,29.83,29.83,0,0,0,12.39-12.83V221.9h-15.9Q780,221.9,780,243.72q0,9.54,6.36,14.91T802.68,264Z"/><path d="M905.52,175.2q13.49-16.56,35.09-16.56,37.6,0,37.93,42.43v78.39H958.26V201q-.12-12.83-5.87-19t-17.92-6.14a29.29,29.29,0,0,0-17.33,5.27,35.69,35.69,0,0,0-11.62,13.81v84.53H885.24V111.05h20.28Z"/><path d="M1082.15,279.46Q1080.4,276,1079.3,267q-14.15,14.68-33.77,14.69-17.54,0-28.78-9.92a32.13,32.13,0,0,1-11.24-25.17q0-18.52,14.09-28.78t39.64-10.25H1079v-9.32q0-10.64-6.36-16.94t-18.75-6.3q-10.86,0-18.2,5.48t-7.35,13.26h-20.39q0-8.88,6.3-17.15a43,43,0,0,1,17.11-13.11,57.59,57.59,0,0,1,23.73-4.82q20.51,0,32.13,10.25t12.06,28.23v54.61q0,16.34,4.17,26v1.75ZM1048.49,264a35.7,35.7,0,0,0,18.1-4.94A29.83,29.83,0,0,0,1079,246.24V221.9h-15.9q-37.29,0-37.28,21.82,0,9.54,6.36,14.91T1048.49,264Z"/><path d="M1150.13,160.83l.55,13.16q13-15.35,35.2-15.35,24.88,0,33.88,19.08a44.93,44.93,0,0,1,15.4-13.82q9.48-5.27,22.42-5.26,39,0,39.69,41.33v79.49H1277V201.18q0-12.72-5.81-19t-19.52-6.31q-11.29,0-18.75,6.75t-8.66,18.14v78.72h-20.39V201.73q0-25.87-25.33-25.88-20,0-27.3,17v86.61H1131V160.83Z"/><path d="M1433.67,208.31q-27.09-7.78-39.42-19.14a36.55,36.55,0,0,1-12.33-28q0-18.85,15.07-31.19t39.2-12.34q16.44,0,29.33,6.36a48.21,48.21,0,0,1,20,17.54,44.85,44.85,0,0,1,7.08,24.46h-21.16q0-14.53-9.21-22.84t-26-8.3q-15.57,0-24.29,6.86t-8.71,19.06q0,9.78,8.28,16.53t28.17,12.36q19.9,5.59,31.14,12.34t16.67,15.74q5.43,9,5.43,21.16,0,19.41-15.13,31.08t-40.46,11.68a74.9,74.9,0,0,1-30.7-6.31q-14.27-6.3-22-17.27a42.12,42.12,0,0,1-7.73-24.88H1398q0,14.46,10.7,22.86t28.56,8.38q16.67,0,25.54-6.79t8.88-18.53q0-11.73-8.22-18.15T1433.67,208.31Z"/><path d="M1564.25,265.1a29.19,29.19,0,0,0,19-6.58,23.1,23.1,0,0,0,9-16.44h19.19a36.82,36.82,0,0,1-7,19.4,46.27,46.27,0,0,1-17.27,14.7,49.89,49.89,0,0,1-22.86,5.48q-24.23,0-38.54-16.17t-14.3-44.24v-3.4q0-17.32,6.35-30.81A48.53,48.53,0,0,1,1536,166.09q11.89-7.44,28.12-7.45,20,0,33.17,12t14.09,31h-19.19a27.93,27.93,0,0,0-8.71-18.91,27.11,27.11,0,0,0-19.36-7.41q-15.45,0-24,11.13t-8.5,32.18v3.84q0,20.51,8.44,31.58T1564.25,265.1Z"/><path d="M1707.45,279.46c-1.17-2.33-2.13-6.5-2.85-12.49q-14.14,14.68-33.77,14.69-17.55,0-28.79-9.92a32.12,32.12,0,0,1-11.23-25.17q0-18.52,14.09-28.78t39.63-10.25h19.74v-9.32q0-10.64-6.36-16.94t-18.75-6.3q-10.86,0-18.2,5.48t-7.35,13.26h-20.39q0-8.88,6.3-17.15a43.06,43.06,0,0,1,17.11-13.11,57.59,57.59,0,0,1,23.73-4.82q20.51,0,32.13,10.25t12.06,28.23v54.61q0,16.34,4.17,26v1.75ZM1673.79,264a35.64,35.64,0,0,0,18.09-4.94,29.83,29.83,0,0,0,12.39-12.83V221.9h-15.9q-37.27,0-37.28,21.82,0,9.54,6.36,14.91T1673.79,264Z"/><path d="M1775.53,160.83l.66,14.91q13.59-17.1,35.53-17.1,37.6,0,37.93,42.43v78.39h-20.28V201q-.12-12.83-5.87-19t-17.92-6.14a29.29,29.29,0,0,0-17.33,5.27,35.69,35.69,0,0,0-11.62,13.81v84.53h-20.28V160.83Z"/><path d="M591.88,365.16q-1.33,11.4-8.41,17.59T564.65,389q-12.74,0-20.4-9.13t-7.68-24.42v-6.91a41,41,0,0,1,3.58-17.62,26.85,26.85,0,0,1,10.14-11.67,28.25,28.25,0,0,1,15.2-4.07q11.44,0,18.35,6.39t8,17.69h-9.52q-1.23-8.61-5.35-12.47t-11.52-3.86q-9.09,0-14.24,6.72t-5.15,19.11v7q0,11.7,4.88,18.62a15.78,15.78,0,0,0,13.67,6.91q7.89,0,12.11-3.58t5.6-12.46Z"/><path d="M601,360.77A31.61,31.61,0,0,1,604,346.66a23,23,0,0,1,8.59-9.67,23.36,23.36,0,0,1,12.56-3.4q10.9,0,17.64,7.55t6.73,20.08v.64a31.81,31.81,0,0,1-3,14,22.76,22.76,0,0,1-8.54,9.64A23.65,23.65,0,0,1,625.29,389q-10.86,0-17.59-7.55t-6.74-20Zm9.18,1.09q0,8.88,4.12,14.26a14,14,0,0,0,22.08-.08q4.1-5.44,4.09-15.27,0-8.77-4.17-14.23a13.87,13.87,0,0,0-22-.08Q610.14,351.85,610.14,361.86Z"/><path d="M669.64,334.57l.3,6.71a19.44,19.44,0,0,1,16-7.69q16.92,0,17.07,19.09V388h-9.12V352.63q-.06-5.78-2.64-8.53t-8.07-2.77a13.19,13.19,0,0,0-7.8,2.37,16.13,16.13,0,0,0-5.23,6.22v38H661V334.57Z"/><path d="M734.37,375.57l13.23-41h9.32L737.78,388h-7l-19.34-53.39h9.33Z"/><path d="M787.22,389q-10.86,0-17.67-7.13t-6.81-19.07v-1.68a32.08,32.08,0,0,1,3-14.19,23.73,23.73,0,0,1,8.48-9.77,21.37,21.37,0,0,1,11.82-3.52q10.41,0,16.18,6.86T808,360.08v3.8H771.87q.2,7.89,4.62,12.76a14.48,14.48,0,0,0,11.22,4.86,15.87,15.87,0,0,0,8.19-2,20.49,20.49,0,0,0,5.87-5.23l5.58,4.34Q800.63,389,787.22,389Zm-1.14-47.86a12.17,12.17,0,0,0-9.27,4q-3.75,4-4.64,11.27h26.74v-.69q-.39-7-3.75-10.78A11.46,11.46,0,0,0,786.08,341.09Z"/><path d="M836.51,354.06l11.84-19.49H859L841.54,361l18,27H849l-12.34-20-12.33,20H813.71l18-27-17.47-26.4h10.56Z"/><path d="M950.33,388h-9.52V354.75H904.59V388h-9.47V316.12h9.47V347h36.22V316.12h9.52Z"/><path d="M998.68,382.68Q993.36,389,983,389q-8.53,0-13-5t-4.51-14.68V334.57h9.13v34.49q0,12.13,9.86,12.14,10.47,0,13.92-7.8V334.57h9.13V388h-8.69Z"/><path d="M1031.35,388h-9.13V312.17h9.13Z"/><path d="M1055.87,388h-9.13V312.17h9.13Z"/></svg>